<svg xmlns="http://www.w3.org/2000/svg" xmlns:xlink="http://www.w3.org/1999/xlink" width="500" zoomAndPan="magnify" viewBox="0 0 375 374.999991" height="500" preserveAspectRatio="xMidYMid meet" version="1.0"><defs><g/><clipPath id="e41451eda7"><path d="M 0.351562 1.015625 L 356 1.015625 L 356 333.921875 L 0.351562 333.921875 Z M 0.351562 1.015625 " clip-rule="nonzero"/></clipPath><clipPath id="e987a0980c"><path d="M 35.601562 1.015625 L 320.554688 1.015625 C 340.023438 1.015625 355.804688 16.800781 355.804688 36.265625 L 355.804688 298.671875 C 355.804688 318.140625 340.023438 333.921875 320.554688 333.921875 L 35.601562 333.921875 C 16.132812 333.921875 0.351562 318.140625 0.351562 298.671875 L 0.351562 36.265625 C 0.351562 16.800781 16.132812 1.015625 35.601562 1.015625 Z M 35.601562 1.015625 " clip-rule="nonzero"/></clipPath><clipPath id="fb064c5915"><path d="M 0.351562 0.015625 L 355.839844 0.015625 L 355.839844 332.921875 L 0.351562 332.921875 Z M 0.351562 0.015625 " clip-rule="nonzero"/></clipPath><clipPath id="83d045f841"><path d="M 35.601562 0.015625 L 320.554688 0.015625 C 340.023438 0.015625 355.804688 15.800781 355.804688 35.265625 L 355.804688 297.671875 C 355.804688 317.140625 340.023438 332.921875 320.554688 332.921875 L 35.601562 332.921875 C 16.132812 332.921875 0.351562 317.140625 0.351562 297.671875 L 0.351562 35.265625 C 0.351562 15.800781 16.132812 0.015625 35.601562 0.015625 Z M 35.601562 0.015625 " clip-rule="nonzero"/></clipPath><clipPath id="d72a6903e9"><rect x="0" width="356" y="0" height="333"/></clipPath><clipPath id="7422d2b248"><path d="M 226.175781 63.867188 L 331 63.867188 L 331 155.257812 L 226.175781 155.257812 Z M 226.175781 63.867188 " clip-rule="nonzero"/></clipPath><clipPath id="80b97d2171"><path d="M 329.917969 112.804688 L 307.105469 152.015625 C 305.9375 154.023438 303.789062 155.257812 301.46875 155.257812 L 255.796875 155.257812 C 253.476562 155.257812 251.328125 154.023438 250.160156 152.015625 L 227.347656 112.804688 C 226.179688 110.800781 226.179688 108.324219 227.347656 106.320312 L 250.160156 67.109375 C 251.328125 65.101562 253.476562 63.867188 255.796875 63.867188 L 301.46875 63.867188 C 303.789062 63.867188 305.9375 65.101562 307.105469 67.109375 L 329.917969 106.320312 C 331.085938 108.324219 331.085938 110.800781 329.917969 112.804688 Z M 329.917969 112.804688 " clip-rule="nonzero"/></clipPath><clipPath id="bfa1489e42"><path d="M 0.175781 0.867188 L 105 0.867188 L 105 92.257812 L 0.175781 92.257812 Z M 0.175781 0.867188 " clip-rule="nonzero"/></clipPath><clipPath id="54abd6f5cb"><path d="M 103.917969 49.804688 L 81.105469 89.015625 C 79.9375 91.023438 77.789062 92.257812 75.46875 92.257812 L 29.796875 92.257812 C 27.476562 92.257812 25.328125 91.023438 24.160156 89.015625 L 1.347656 49.804688 C 0.179688 47.800781 0.179688 45.324219 1.347656 43.320312 L 24.160156 4.109375 C 25.328125 2.101562 27.476562 0.867188 29.796875 0.867188 L 75.46875 0.867188 C 77.789062 0.867188 79.9375 2.101562 81.105469 4.109375 L 103.917969 43.320312 C 105.085938 45.324219 105.085938 47.800781 103.917969 49.804688 Z M 103.917969 49.804688 " clip-rule="nonzero"/></clipPath><clipPath id="714baf9e95"><rect x="0" width="105" y="0" height="93"/></clipPath><clipPath id="8929d1e989"><rect x="0" width="357" y="0" height="335"/></clipPath></defs><g transform="matrix(1, 0, 0, 1, 8, 10)"><g clip-path="url(#8929d1e989)"><g clip-path="url(#e41451eda7)"><g clip-path="url(#e987a0980c)"><g transform="matrix(1, 0, 0, 1, -0.000000000000001776, 1)"><g clip-path="url(#d72a6903e9)"><g clip-path="url(#fb064c5915)"><g clip-path="url(#83d045f841)"><path fill="#ffffff" d="M 0.351562 0.015625 L 355.363281 0.015625 L 355.363281 332.921875 L 0.351562 332.921875 Z M 0.351562 0.015625 " fill-opacity="1" fill-rule="nonzero"/></g></g></g></g></g></g><g clip-path="url(#7422d2b248)"><g clip-path="url(#80b97d2171)"><g transform="matrix(1, 0, 0, 1, 226, 63)"><g clip-path="url(#714baf9e95)"><g clip-path="url(#bfa1489e42)"><g clip-path="url(#54abd6f5cb)"><path fill="#07b306" d="M -0.539062 0.867188 L 105.84375 0.867188 L 105.84375 92.257812 L -0.539062 92.257812 Z M -0.539062 0.867188 " fill-opacity="1" fill-rule="nonzero"/></g></g></g></g></g></g><g fill="#000000" fill-opacity="1"><g transform="translate(24.351904, 154.84598)"><g><path d="M 6.34375 -87.15625 L 33.375 -87.15625 C 41.550781 -87.15625 48.066406 -85.410156 52.921875 -81.921875 C 57.785156 -78.429688 60.21875 -72.78125 60.21875 -64.96875 C 60.21875 -56.238281 56.585938 -50.003906 49.328125 -46.265625 C 61.722656 -44.085938 67.921875 -36.765625 67.921875 -24.296875 C 67.921875 -16.972656 65.382812 -11.09375 60.3125 -6.65625 C 55.25 -2.21875 48.28125 0 39.40625 0 L 6.34375 0 Z M 26.203125 -53.03125 L 27.78125 -53.03125 C 32.21875 -53.03125 35.523438 -53.804688 37.703125 -55.359375 C 39.890625 -56.910156 40.984375 -59.445312 40.984375 -62.96875 C 40.984375 -68.875 36.582031 -71.828125 27.78125 -71.828125 L 26.203125 -71.828125 Z M 26.203125 -15.3125 L 32.4375 -15.3125 C 42.15625 -15.3125 47.015625 -18.550781 47.015625 -25.03125 C 47.015625 -28.90625 45.796875 -31.6875 43.359375 -33.375 C 40.929688 -35.070312 37.289062 -35.921875 32.4375 -35.921875 L 26.203125 -35.921875 Z M 26.203125 -15.3125 "/></g></g></g><g fill="#000000" fill-opacity="1"><g transform="translate(98.926597, 154.84598)"><g><path d="M 56.203125 -87.15625 L 56.203125 -69.71875 L 26.203125 -69.71875 L 26.203125 -52.390625 L 54.9375 -52.390625 L 54.9375 -34.96875 L 26.203125 -34.96875 L 26.203125 -17.4375 L 56.203125 -17.4375 L 56.203125 0 L 6.34375 0 L 6.34375 -87.15625 Z M 56.203125 -87.15625 "/></g></g></g><g fill="#000000" fill-opacity="1"><g transform="translate(164.417155, 154.84598)"><g><path d="M 0.84375 -69.71875 L 0.84375 -87.15625 L 62.109375 -87.15625 L 62.109375 -69.71875 L 41.40625 -69.71875 L 41.40625 0 L 21.546875 0 L 21.546875 -69.71875 Z M 0.84375 -69.71875 "/></g></g></g><g fill="#000000" fill-opacity="1"><g transform="translate(24.351904, 259.498931)"><g><path d="M 38.453125 -88.734375 C 43.171875 -88.734375 47.78125 -88.046875 52.28125 -86.671875 C 56.789062 -85.304688 60.140625 -83.953125 62.328125 -82.609375 L 65.5 -80.5 L 57.46875 -64.65625 C 56.832031 -65.070312 55.953125 -65.613281 54.828125 -66.28125 C 53.703125 -66.957031 51.585938 -67.859375 48.484375 -68.984375 C 45.390625 -70.109375 42.503906 -70.671875 39.828125 -70.671875 C 36.515625 -70.671875 33.957031 -69.96875 32.15625 -68.5625 C 30.363281 -67.15625 29.46875 -65.253906 29.46875 -62.859375 C 29.46875 -61.660156 29.890625 -60.550781 30.734375 -59.53125 C 31.585938 -58.507812 33.035156 -57.414062 35.078125 -56.25 C 37.117188 -55.09375 38.910156 -54.160156 40.453125 -53.453125 C 42.003906 -52.742188 44.398438 -51.6875 47.640625 -50.28125 C 53.273438 -47.882812 58.082031 -44.625 62.0625 -40.5 C 66.039062 -36.382812 68.03125 -31.722656 68.03125 -26.515625 C 68.03125 -21.515625 67.128906 -17.144531 65.328125 -13.40625 C 63.535156 -9.675781 61.070312 -6.753906 57.9375 -4.640625 C 54.8125 -2.535156 51.34375 -0.972656 47.53125 0.046875 C 43.726562 1.066406 39.609375 1.578125 35.171875 1.578125 C 31.367188 1.578125 27.632812 1.191406 23.96875 0.421875 C 20.3125 -0.347656 17.25 -1.3125 14.78125 -2.46875 C 12.320312 -3.632812 10.101562 -4.78125 8.125 -5.90625 C 6.15625 -7.039062 4.710938 -7.992188 3.796875 -8.765625 L 2.4375 -9.9375 L 12.359375 -26.625 C 13.203125 -25.914062 14.363281 -25.015625 15.84375 -23.921875 C 17.320312 -22.835938 19.945312 -21.378906 23.71875 -19.546875 C 27.488281 -17.710938 30.816406 -16.796875 33.703125 -16.796875 C 42.078125 -16.796875 46.265625 -19.648438 46.265625 -25.359375 C 46.265625 -26.554688 45.960938 -27.664062 45.359375 -28.6875 C 44.765625 -29.707031 43.710938 -30.726562 42.203125 -31.75 C 40.691406 -32.769531 39.351562 -33.578125 38.1875 -34.171875 C 37.03125 -34.773438 35.128906 -35.691406 32.484375 -36.921875 C 29.835938 -38.148438 27.882812 -39.082031 26.625 -39.71875 C 21.34375 -42.320312 17.253906 -45.578125 14.359375 -49.484375 C 11.472656 -53.398438 10.03125 -57.609375 10.03125 -62.109375 C 10.03125 -69.929688 12.914062 -76.320312 18.6875 -81.28125 C 24.46875 -86.25 31.054688 -88.734375 38.453125 -88.734375 Z M 38.453125 -88.734375 "/></g></g></g><g fill="#000000" fill-opacity="1"><g transform="translate(97.870198, 259.498931)"><g><path d="M 73.3125 -87.15625 L 73.3125 -30.953125 C 73.3125 -20.242188 70.421875 -12.144531 64.640625 -6.65625 C 58.867188 -1.164062 50.421875 1.578125 39.296875 1.578125 C 28.171875 1.578125 19.71875 -1.164062 13.9375 -6.65625 C 8.164062 -12.144531 5.28125 -20.242188 5.28125 -30.953125 L 5.28125 -87.15625 L 25.140625 -87.15625 L 25.140625 -36.765625 C 25.140625 -29.722656 26.25 -24.828125 28.46875 -22.078125 C 30.6875 -19.328125 34.296875 -17.953125 39.296875 -17.953125 C 44.296875 -17.953125 47.90625 -19.328125 50.125 -22.078125 C 52.34375 -24.828125 53.453125 -29.722656 53.453125 -36.765625 L 53.453125 -87.15625 Z M 73.3125 -87.15625 "/></g></g></g><g fill="#000000" fill-opacity="1"><g transform="translate(178.993799, 259.498931)"><g><path d="M 6.34375 -87.15625 L 37.5 -87.15625 C 45.882812 -87.15625 52.71875 -84.914062 58 -80.4375 C 63.28125 -75.96875 65.921875 -69.578125 65.921875 -61.265625 C 65.921875 -54.859375 64.316406 -49.488281 61.109375 -45.15625 C 57.910156 -40.832031 53.5625 -37.789062 48.0625 -36.03125 L 78.0625 0 L 52.828125 0 L 26.203125 -34.4375 L 26.203125 0 L 6.34375 0 Z M 26.203125 -48.484375 L 28.515625 -48.484375 C 30.347656 -48.484375 31.898438 -48.519531 33.171875 -48.59375 C 34.441406 -48.664062 35.882812 -48.910156 37.5 -49.328125 C 39.125 -49.753906 40.425781 -50.351562 41.40625 -51.125 C 42.394531 -51.90625 43.238281 -53.035156 43.9375 -54.515625 C 44.644531 -55.992188 45 -57.785156 45 -59.890625 C 45 -62.003906 44.644531 -63.800781 43.9375 -65.28125 C 43.238281 -66.757812 42.394531 -67.882812 41.40625 -68.65625 C 40.425781 -69.4375 39.125 -70.035156 37.5 -70.453125 C 35.882812 -70.878906 34.441406 -71.128906 33.171875 -71.203125 C 31.898438 -71.273438 30.347656 -71.3125 28.515625 -71.3125 L 26.203125 -71.3125 Z M 26.203125 -48.484375 "/></g></g></g><g fill="#000000" fill-opacity="1"><g transform="translate(257.159768, 259.498931)"><g><path d="M 56.203125 -87.15625 L 56.203125 -69.71875 L 26.203125 -69.71875 L 26.203125 -52.390625 L 54.9375 -52.390625 L 54.9375 -34.96875 L 26.203125 -34.96875 L 26.203125 -17.4375 L 56.203125 -17.4375 L 56.203125 0 L 6.34375 0 L 6.34375 -87.15625 Z M 56.203125 -87.15625 "/></g></g></g></g></g></svg>